STARTFONT 2.1
FONT misc.genpunc.8
SIZE 14 72 72
FONTBOUNDINGBOX 16 14 0 -3
STARTPROPERTIES 4
FONT_DESCENT 3
FONT_ASCENT 11
DEFAULT_CHAR 0
COPYRIGHT "Copyright (c) 1992 AT&T - All rights reserved."
ENDPROPERTIES
CHARS 55
STARTCHAR ch-0
ENCODING 0
SWIDTH 571 0
DWIDTH 8 0
BBX 8 14 0 -3
BITMAP
0000
0000
0000
0000
0000
0000
0000
0000
0000
0000
0000
0000
0000
0000
ENDCHAR
STARTCHAR ch-1
ENCODING 1
SWIDTH 857 0
DWIDTH 12 0
BBX 12 14 0 -3
BITMAP
0000
0000
0000
0000
0000
0000
0000
0000
0000
0000
0000
0000
0000
0000
ENDCHAR
STARTCHAR ch-2
ENCODING 2
SWIDTH 571 0
DWIDTH 8 0
BBX 8 14 0 -3
BITMAP
0000
0000
0000
0000
0000
0000
0000
0000
0000
0000
0000
0000
0000
0000
ENDCHAR
STARTCHAR ch-3
ENCODING 3
SWIDTH 857 0
DWIDTH 12 0
BBX 12 14 0 -3
BITMAP
0000
0000
0000
0000
0000
0000
0000
0000
0000
0000
0000
0000
0000
0000
ENDCHAR
STARTCHAR ch-4
ENCODING 4
SWIDTH 285 0
DWIDTH 4 0
BBX 4 14 0 -3
BITMAP
0000
0000
0000
0000
0000
0000
0000
0000
0000
0000
0000
0000
0000
0000
ENDCHAR
STARTCHAR ch-5
ENCODING 5
SWIDTH 214 0
DWIDTH 3 0
BBX 3 14 0 -3
BITMAP
0000
0000
0000
0000
0000
0000
0000
0000
0000
0000
0000
0000
0000
0000
ENDCHAR
STARTCHAR ch-6
ENCODING 6
SWIDTH 142 0
DWIDTH 2 0
BBX 2 14 0 -3
BITMAP
0000
0000
0000
0000
0000
0000
0000
0000
0000
0000
0000
0000
0000
0000
ENDCHAR
STARTCHAR ch-7
ENCODING 7
SWIDTH 500 0
DWIDTH 7 0
BBX 7 14 0 -3
BITMAP
0000
0000
0000
0000
0000
0000
0000
0000
0000
0000
0000
0000
0000
0000
ENDCHAR
STARTCHAR ch-8
ENCODING 8
SWIDTH 571 0
DWIDTH 8 0
BBX 8 14 0 -3
BITMAP
0000
0000
0000
0000
0000
0000
0000
0000
0000
0000
0000
0000
0000
0000
ENDCHAR
STARTCHAR ch-9
ENCODING 9
SWIDTH 285 0
DWIDTH 4 0
BBX 4 14 0 -3
BITMAP
0000
0000
0000
0000
0000
0000
0000
0000
0000
0000
0000
0000
0000
0000
ENDCHAR
STARTCHAR ch-10
ENCODING 10
SWIDTH 142 0
DWIDTH 2 0
BBX 2 14 0 -3
BITMAP
0000
0000
0000
0000
0000
0000
0000
0000
0000
0000
0000
0000
0000
0000
ENDCHAR
STARTCHAR ch-16
ENCODING 16
SWIDTH 571 0
DWIDTH 8 0
BBX 8 14 0 -3
BITMAP
0000
0000
0000
0000
0000
0000
fe00
fe00
0000
0000
0000
0000
0000
0000
ENDCHAR
STARTCHAR ch-17
ENCODING 17
SWIDTH 571 0
DWIDTH 8 0
BBX 8 14 0 -3
BITMAP
0000
0000
0000
0000
0000
0000
fe00
fe00
0000
0000
0000
0000
0000
0000
ENDCHAR
STARTCHAR ch-18
ENCODING 18
SWIDTH 500 0
DWIDTH 7 0
BBX 7 14 0 -3
BITMAP
0000
0000
0000
0000
0000
0000
fc00
fc00
0000
0000
0000
0000
0000
0000
ENDCHAR
STARTCHAR ch-19
ENCODING 19
SWIDTH 642 0
DWIDTH 9 0
BBX 9 14 0 -3
BITMAP
0000
0000
0000
0000
0000
0000
ff00
ff00
0000
0000
0000
0000
0000
0000
ENDCHAR
STARTCHAR ch-20
ENCODING 20
SWIDTH 928 0
DWIDTH 13 0
BBX 13 14 0 -3
BITMAP
0000
0000
0000
0000
0000
0000
fff0
fff0
0000
0000
0000
0000
0000
0000
ENDCHAR
STARTCHAR ch-21
ENCODING 21
SWIDTH 1142 0
DWIDTH 16 0
BBX 16 14 0 -3
BITMAP
0000
0000
0000
0000
0000
0000
fffe
fffe
0000
0000
0000
0000
0000
0000
ENDCHAR
STARTCHAR ch-22
ENCODING 22
SWIDTH 571 0
DWIDTH 8 0
BBX 8 14 0 -3
BITMAP
0000
6600
6600
6600
6600
6600
6600
6600
6600
6600
6600
6600
0000
0000
ENDCHAR
STARTCHAR ch-23
ENCODING 23
SWIDTH 571 0
DWIDTH 8 0
BBX 8 14 0 -3
BITMAP
0000
0000
0000
0000
0000
0000
0000
0000
0000
0000
fe00
0000
fe00
0000
ENDCHAR
STARTCHAR ch-24
ENCODING 24
SWIDTH 571 0
DWIDTH 8 0
BBX 8 14 0 -3
BITMAP
0000
0000
0800
1000
1000
1800
1800
0000
0000
0000
0000
0000
0000
0000
ENDCHAR
STARTCHAR ch-25
ENCODING 25
SWIDTH 571 0
DWIDTH 8 0
BBX 8 14 0 -3
BITMAP
0000
0000
1800
1800
0800
0800
1000
0000
0000
0000
0000
0000
0000
0000
ENDCHAR
STARTCHAR ch-26
ENCODING 26
SWIDTH 571 0
DWIDTH 8 0
BBX 8 14 0 -3
BITMAP
0000
0000
0000
0000
0000
0000
0000
0000
1800
1800
0800
0800
1000
0000
ENDCHAR
STARTCHAR ch-27
ENCODING 27
SWIDTH 571 0
DWIDTH 8 0
BBX 8 14 0 -3
BITMAP
0000
0000
1800
1800
1000
1000
0800
0000
0000
0000
0000
0000
0000
0000
ENDCHAR
STARTCHAR ch-28
ENCODING 28
SWIDTH 571 0
DWIDTH 8 0
BBX 8 14 0 -3
BITMAP
0000
0000
2400
4800
4800
6c00
6c00
0000
0000
0000
0000
0000
0000
0000
ENDCHAR
STARTCHAR ch-29
ENCODING 29
SWIDTH 571 0
DWIDTH 8 0
BBX 8 14 0 -3
BITMAP
0000
0000
6c00
6c00
2400
2400
4800
0000
0000
0000
0000
0000
0000
0000
ENDCHAR
STARTCHAR ch-30
ENCODING 30
SWIDTH 571 0
DWIDTH 8 0
BBX 8 14 0 -3
BITMAP
0000
0000
0000
0000
0000
0000
0000
0000
6c00
6c00
2400
2400
4800
0000
ENDCHAR
STARTCHAR ch-31
ENCODING 31
SWIDTH 571 0
DWIDTH 8 0
BBX 8 14 0 -3
BITMAP
0000
0000
6c00
6c00
4800
4800
2400
0000
0000
0000
0000
0000
0000
0000
ENDCHAR
STARTCHAR ch-32
ENCODING 32
SWIDTH 571 0
DWIDTH 8 0
BBX 8 14 0 -3
BITMAP
0000
1000
1000
5400
7c00
1000
3800
1000
1000
1000
1000
0000
0000
0000
ENDCHAR
STARTCHAR ch-33
ENCODING 33
SWIDTH 571 0
DWIDTH 8 0
BBX 8 14 0 -3
BITMAP
0000
1000
1000
5400
7c00
1000
3800
1000
7c00
5400
1000
1000
0000
0000
ENDCHAR
STARTCHAR ch-34
ENCODING 34
SWIDTH 571 0
DWIDTH 8 0
BBX 8 14 0 -3
BITMAP
0000
0000
0000
0000
3800
7c00
7c00
7c00
3800
0000
0000
0000
0000
0000
ENDCHAR
STARTCHAR ch-35
ENCODING 35
SWIDTH 571 0
DWIDTH 8 0
BBX 8 14 0 -3
BITMAP
0000
0000
4000
6000
7000
7800
7c00
7800
7000
6000
4000
0000
0000
0000
ENDCHAR
STARTCHAR ch-36
ENCODING 36
SWIDTH 571 0
DWIDTH 8 0
BBX 8 14 0 -3
BITMAP
0000
0000
0000
0000
0000
0000
1800
1800
0000
0000
0000
0000
0000
0000
ENDCHAR
STARTCHAR ch-37
ENCODING 37
SWIDTH 571 0
DWIDTH 8 0
BBX 8 14 0 -3
BITMAP
0000
0000
0000
0000
0000
0000
6600
6600
0000
0000
0000
0000
0000
0000
ENDCHAR
STARTCHAR ch-38
ENCODING 38
SWIDTH 785 0
DWIDTH 11 0
BBX 11 14 0 -3
BITMAP
0000
0000
0000
0000
0000
0000
ccc0
ccc0
0000
0000
0000
0000
0000
0000
ENDCHAR
STARTCHAR ch-39
ENCODING 39
SWIDTH 571 0
DWIDTH 8 0
BBX 8 14 0 -3
BITMAP
0000
0000
0000
0000
1800
1800
0000
0000
0000
0000
0000
0000
0000
0000
ENDCHAR
STARTCHAR ch-48
ENCODING 48
SWIDTH 785 0
DWIDTH 11 0
BBX 11 14 0 -3
BITMAP
0000
0000
7000
da00
da00
7400
2800
5980
b6c0
b6c0
1980
0000
0000
0000
ENDCHAR
STARTCHAR ch-49
ENCODING 49
SWIDTH 928 0
DWIDTH 13 0
BBX 13 14 0 -3
BITMAP
0000
0000
7000
da00
da00
7400
2800
5b60
b5b0
b5b0
1b60
0000
0000
0000
ENDCHAR
STARTCHAR ch-50
ENCODING 50
SWIDTH 571 0
DWIDTH 8 0
BBX 8 14 0 -3
BITMAP
0000
0000
1800
3000
6000
0000
0000
0000
0000
0000
0000
0000
0000
0000
ENDCHAR
STARTCHAR ch-51
ENCODING 51
SWIDTH 571 0
DWIDTH 8 0
BBX 8 14 0 -3
BITMAP
0000
0000
3600
6c00
d800
0000
0000
0000
0000
0000
0000
0000
0000
0000
ENDCHAR
STARTCHAR ch-52
ENCODING 52
SWIDTH 785 0
DWIDTH 11 0
BBX 11 14 0 -3
BITMAP
0000
0000
36c0
6d80
db00
0000
0000
0000
0000
0000
0000
0000
0000
0000
ENDCHAR
STARTCHAR ch-53
ENCODING 53
SWIDTH 571 0
DWIDTH 8 0
BBX 8 14 0 -3
BITMAP
0000
0000
6000
3000
1800
0000
0000
0000
0000
0000
0000
0000
0000
0000
ENDCHAR
STARTCHAR ch-54
ENCODING 54
SWIDTH 571 0
DWIDTH 8 0
BBX 8 14 0 -3
BITMAP
0000
0000
d800
6c00
3600
0000
0000
0000
0000
0000
0000
0000
0000
0000
ENDCHAR
STARTCHAR ch-55
ENCODING 55
SWIDTH 785 0
DWIDTH 11 0
BBX 11 14 0 -3
BITMAP
0000
0000
db00
6d80
36c0
0000
0000
0000
0000
0000
0000
0000
0000
0000
ENDCHAR
STARTCHAR ch-56
ENCODING 56
SWIDTH 571 0
DWIDTH 8 0
BBX 8 14 0 -3
BITMAP
0000
0000
0000
0000
0000
0000
1000
3800
2800
6c00
4400
4400
0000
0000
ENDCHAR
STARTCHAR ch-57
ENCODING 57
SWIDTH 571 0
DWIDTH 8 0
BBX 8 14 0 -3
BITMAP
0000
0000
0000
0800
1800
3000
6000
3000
1800
0800
0000
0000
0000
0000
ENDCHAR
STARTCHAR ch-58
ENCODING 58
SWIDTH 571 0
DWIDTH 8 0
BBX 8 14 0 -3
BITMAP
0000
0000
0000
4000
6000
3000
1800
3000
6000
4000
0000
0000
0000
0000
ENDCHAR
STARTCHAR ch-59
ENCODING 59
SWIDTH 857 0
DWIDTH 12 0
BBX 12 14 0 -3
BITMAP
0000
0400
4e40
2480
1100
4a40
e4e0
4a40
1100
2480
4e40
0400
0000
0000
ENDCHAR
STARTCHAR ch-60
ENCODING 60
SWIDTH 571 0
DWIDTH 8 0
BBX 8 14 0 -3
BITMAP
0000
0000
6c00
6c00
6c00
6c00
6c00
2400
0000
6c00
6c00
0000
0000
0000
ENDCHAR
STARTCHAR ch-61
ENCODING 61
SWIDTH 571 0
DWIDTH 8 0
BBX 8 14 0 -3
BITMAP
0000
1800
3c00
7e00
5a00
1e00
1c00
1800
0000
1800
1800
0000
0000
0000
ENDCHAR
STARTCHAR ch-62
ENCODING 62
SWIDTH 571 0
DWIDTH 8 0
BBX 8 14 0 -3
BITMAP
0000
0000
fe00
0000
0000
0000
0000
0000
0000
0000
0000
0000
0000
0000
ENDCHAR
STARTCHAR ch-64
ENCODING 64
SWIDTH 571 0
DWIDTH 8 0
BBX 8 14 0 -3
BITMAP
0000
0000
3c00
6600
4200
0000
0000
0000
0000
0000
0000
0000
0000
0000
ENDCHAR
STARTCHAR ch-65
ENCODING 65
SWIDTH 571 0
DWIDTH 8 0
BBX 8 14 0 -3
BITMAP
0000
0000
0000
0800
0800
1800
1000
3800
2800
6c00
4400
4400
0000
0000
ENDCHAR
STARTCHAR ch-66
ENCODING 66
SWIDTH 1142 0
DWIDTH 16 0
BBX 16 14 0 -3
BITMAP
0000
0000
0540
0380
0ee0
0380
0540
5454
3838
eeee
3838
5454
0000
0000
ENDCHAR
STARTCHAR ch-67
ENCODING 67
SWIDTH 571 0
DWIDTH 8 0
BBX 8 14 0 -3
BITMAP
0000
0000
0000
0000
0000
fe00
fe00
fe00
fe00
0000
0000
0000
0000
0000
ENDCHAR
STARTCHAR ch-68
ENCODING 68
SWIDTH 571 0
DWIDTH 8 0
BBX 8 14 0 -3
BITMAP
0000
0600
0600
0c00
0c00
1800
1800
3000
3000
6000
6000
c000
c000
0000
ENDCHAR
ENDFONT
